<?xml version="1.0" encoding="UTF-8"?>
<svg width="90px" height="19px" viewBox="0 0 90 19" version="1.1" xmlns="http://www.w3.org/2000/svg" xmlns:xlink="http://www.w3.org/1999/xlink">
    <!-- Generator: Sketch 52.4 (67378) - http://www.bohemiancoding.com/sketch -->
    <title>Logo S</title>
    <desc>Created with Sketch.</desc>
    <g id="Web" stroke="none" stroke-width="1" fill="none" fill-rule="evenodd">
        <g id="Navigation" transform="translate(-115.000000, -15.000000)">
            <g id="Group" transform="translate(16.000000, 13.000000)">
                <g id="Logo-S" transform="translate(99.000000, 2.000000)">
                    <path d="M58.0027869,0.398360656 C57.5296698,0.462295402 57.1492637,0.583769597 56.8615574,0.762786885 C56.573851,0.941804174 56.3532795,1.21671946 56.1998361,1.58754098 C56.1103274,1.77934522 56.052787,2.13417774 56.0272131,2.65204918 C56.0016392,3.16992062 55.9760657,3.72294788 55.9504918,4.31114754 C55.9249179,4.86098636 55.9025411,5.50991429 55.8833607,6.25795082 C55.8641802,7.00598735 55.8545902,7.80835637 55.8545902,8.66508197 L55.8545902,9.89262295 C55.8545902,10.3401662 55.8577869,10.7972927 55.8641803,11.2640164 C55.8705738,11.73074 55.8737705,12.19426 55.8737705,12.6545902 L55.8737705,13.9013115 C55.8737705,13.9524593 55.857787,13.9940162 55.8258197,14.0259836 C55.7938523,14.057951 55.745902,14.0739344 55.6819672,14.0739344 C55.5796716,14.0739344 55.4645908,14.0100006 55.3367213,13.8821311 C54.2498306,12.6290101 53.2588569,11.478202 52.3637705,10.4296721 C51.468684,9.3811423 50.615168,8.38057853 49.8031967,7.42795082 C48.9912254,6.47532311 48.1952498,5.54508651 47.4152459,4.63721311 C46.635242,3.72933972 45.8104962,2.78951306 44.9409836,1.81770492 L44.9409836,9.91180328 C44.9409836,10.5639377 44.9569671,11.1521285 44.9889344,11.6763934 C45.0209018,12.2006584 45.100819,12.5906545 45.2286885,12.8463934 C45.369345,13.1404933 45.5899165,13.3610648 45.8904098,13.5081148 C46.1909031,13.6551647 46.6032761,13.7606554 47.127541,13.8245902 L47.127541,14.0163934 L42.4091803,14.0163934 L42.4091803,13.8245902 C42.7160671,13.7862293 43.0229493,13.7063121 43.3298361,13.5848361 C43.6367228,13.46336 43.8796712,13.2619686 44.0586885,12.9806557 C44.2377058,12.7121298 44.3527866,12.3157403 44.4039344,11.7914754 C44.4550822,11.2672105 44.4934425,10.6406594 44.5190164,9.91180328 C44.5445903,9.36196446 44.5637704,8.71303653 44.5765574,7.965 C44.5893443,7.21696347 44.5957377,6.41459445 44.5957377,5.55786885 L44.5957377,3.21786885 C44.5957377,2.96212987 44.5893443,2.64885431 44.5765574,2.27803279 C44.5381965,1.90721126 44.4486892,1.60352577 44.3080328,1.36696721 C44.1673763,1.13040865 44.0011485,0.945000671 43.8093443,0.810737705 C43.61754,0.676474739 43.4097552,0.580574058 43.1859836,0.523032787 C42.962212,0.465491516 42.7480338,0.423934554 42.5434426,0.398360656 L42.5434426,0.206557377 L46.4370492,0.206557377 L55.5285246,10.832459 L55.5285246,4.31114754 C55.5285246,3.79966957 55.5221312,3.3105761 55.5093443,2.84385246 C55.4965573,2.37712881 55.4390169,2.00950954 55.3367213,1.74098361 C55.2088518,1.38294903 54.9818869,1.0920503 54.6558197,0.868278689 C54.3297525,0.644507078 53.8598391,0.4878693 53.2460656,0.398360656 L53.2460656,0.206557377 L58.0027869,0.206557377 L58.0027869,0.398360656 Z M67.1090164,12.1367213 C67.0962294,12.3796733 67.038689,12.6162284 66.9363934,12.8463934 C66.8340978,13.0765585 66.6998369,13.2843433 66.5336066,13.4697541 C66.3673762,13.6551649 66.1723782,13.7958192 65.9486066,13.8917213 C65.7248349,13.9876234 65.4786899,14.0355738 65.2101639,14.0355738 C64.7754077,14.0355738 64.3886083,13.9077062 64.0497541,13.6519672 C63.7108999,13.3962282 63.5414754,12.9486917 63.5414754,12.3093443 L63.5031148,12.2901639 C63.4008192,12.4563943 63.2633615,12.6418023 63.0907377,12.8463934 C62.9181139,13.0509846 62.7135258,13.242786 62.4769672,13.4218033 C62.2404087,13.6008206 61.9782801,13.7446716 61.6905738,13.8533607 C61.4028674,13.9620497 61.0863952,14.0163934 60.7411475,14.0163934 C60.5365564,14.0163934 60.3287715,13.9876232 60.1177869,13.930082 C59.9068022,13.8725407 59.7150009,13.7702466 59.542377,13.6231967 C59.3697532,13.4761468 59.2290989,13.2875421 59.1204098,13.057377 C59.0117208,12.827212 58.957377,12.5459033 58.957377,12.2134426 C58.957377,11.855408 59.1012281,11.5101656 59.3889344,11.1777049 C59.6766408,10.8452442 60.0314733,10.5447554 60.4534426,10.2762295 C60.8754119,10.0077036 61.2494246,9.77754194 61.5754918,9.5857377 C61.901559,9.39393347 62.1860644,9.23090231 62.4290164,9.09663934 C62.6719684,8.96237638 62.8861466,8.84729556 63.0715574,8.75139344 C63.2569681,8.65549132 63.4136059,8.56918071 63.5414754,8.49245902 L63.5414754,6.51688525 C63.5414754,6.49131135 63.5190986,6.43057425 63.4743443,6.33467213 C63.4295899,6.23877001 63.3528694,6.13967264 63.2441803,6.03737705 C63.1354913,5.93508146 62.9852469,5.84237746 62.7934426,5.7592623 C62.6016384,5.67614713 62.3522966,5.63459016 62.0454098,5.63459016 C61.8408186,5.63459016 61.6394272,5.66975375 61.4412295,5.74008197 C61.2430318,5.81041019 61.0672139,5.89991749 60.9137705,6.00860656 C60.7603271,6.11729563 60.6388529,6.22598306 60.5493443,6.33467213 C60.4598356,6.4433612 60.415082,6.53606519 60.415082,6.61278689 L60.415082,7.47590164 C60.415082,7.65491893 60.322378,7.8147534 60.1369672,7.95540984 C59.9515565,8.09606628 59.750165,8.16639344 59.5327869,8.16639344 C59.3281957,8.16639344 59.1523778,8.09286959 59.0053279,7.94581967 C58.858278,7.79876976 58.7847541,7.62934522 58.7847541,7.43754098 C58.7847541,7.28409759 58.8231144,7.14344326 58.8998361,7.01557377 C58.9765578,6.88770428 59.0724584,6.77262346 59.187541,6.67032787 C59.3026235,6.56803228 59.4272944,6.47852497 59.5615574,6.40180328 C59.6958203,6.32508158 59.8140978,6.25475442 59.9163934,6.19081967 C60.2488541,5.99901543 60.5877032,5.81360745 60.9329508,5.63459016 C61.2781984,5.45557288 61.6074575,5.30213179 61.9207377,5.1742623 C62.234018,5.0463928 62.52172,4.94409874 62.7838525,4.86737705 C63.0459849,4.79065535 63.2601631,4.75229508 63.4263934,4.75229508 C63.7588541,4.75229508 64.0721297,4.83860569 64.3662295,5.01122951 C64.6603293,5.18385332 64.8713108,5.39803151 64.9991803,5.65377049 C65.0503281,5.74327914 65.082295,5.89991691 65.095082,6.12368852 C65.1078689,6.34746014 65.1142623,6.5680317 65.1142623,6.78540984 C65.1142623,7.24574001 65.1110656,7.66130962 65.1046721,8.03213115 C65.0982787,8.40295267 65.095082,8.76098188 65.095082,9.10622951 C65.095082,9.45147714 65.0918853,9.80630965 65.0854918,10.1707377 C65.0790983,10.5351658 65.0759016,10.9347519 65.0759016,11.3695082 C65.0759016,11.9449209 65.174999,12.3253269 65.3731967,12.5107377 C65.5713944,12.6961485 65.7983594,12.7888525 66.0540984,12.7888525 C66.3481982,12.7888525 66.5655731,12.7281154 66.7062295,12.6066393 C66.8468859,12.4851633 66.9427866,12.3285255 66.9939344,12.1367213 L67.1090164,12.1367213 Z M63.5414754,11.7531148 L63.5414754,8.79934426 C63.3113103,8.9655746 63.0236083,9.14139252 62.6783607,9.32680328 C62.333113,9.51221404 61.9974606,9.71360547 61.6713934,9.93098361 C61.3453262,10.1483617 61.0640176,10.3881134 60.827459,10.6502459 C60.5909005,10.9123784 60.472623,11.2096705 60.472623,11.5421311 C60.472623,11.8745918 60.5877038,12.1750806 60.8178689,12.4436066 C61.0480339,12.7121325 61.3485227,12.8463934 61.7193443,12.8463934 C62.0518049,12.8463934 62.3459004,12.8080332 62.6016393,12.7313115 C62.8573783,12.6545898 63.0939333,12.5075421 63.3113115,12.2901639 C63.4647549,12.1495075 63.5414754,11.9704929 63.5414754,11.7531148 Z M81.4131148,14.0163934 L77.6345902,14.0163934 L77.6345902,13.8054098 C77.9798378,13.7798359 78.2419663,13.738279 78.4209836,13.6807377 C78.6000009,13.6231964 78.6895082,13.4921322 78.6895082,13.287541 L78.6895082,8.39655738 C78.6895082,7.65491432 78.5584439,7.0635268 78.2963115,6.62237705 C78.034179,6.1812273 77.5706591,5.96065574 76.9057377,5.96065574 C76.4837684,5.96065574 76.1321326,6.07253986 75.8508197,6.29631148 C75.5695068,6.52008309 75.2754114,6.80458844 74.9685246,7.14983607 L74.9685246,13.345082 C74.9685246,13.4345906 75.0004915,13.5113112 75.0644262,13.5752459 C75.128361,13.6391806 75.2114749,13.687131 75.3137705,13.7190984 C75.4160661,13.7510657 75.5279502,13.7766392 75.6494262,13.7958197 C75.7709022,13.8150001 75.8891798,13.8309835 76.0042623,13.8437705 L76.0042623,14.0163934 L72.2257377,14.0163934 L72.2257377,13.8054098 C72.5709853,13.7798359 72.8459006,13.738279 73.0504918,13.6807377 C73.255083,13.6231964 73.357377,13.4921322 73.357377,13.287541 L73.357377,8.37737705 C73.357377,7.62294705 73.2263128,7.03155952 72.9641803,6.60319672 C72.7020479,6.17483392 72.2385279,5.96065574 71.5736066,5.96065574 C71.1516372,5.96065574 70.8063948,6.05016304 70.5378689,6.22918033 C70.2693429,6.40819762 69.9688541,6.67671952 69.6363934,7.0347541 L69.6363934,13.3259016 C69.6619673,13.4537711 69.706721,13.5464751 69.7706557,13.6040164 C69.8345905,13.6615577 69.9145077,13.7031146 70.0104098,13.7286885 C70.106312,13.7542624 70.2118027,13.7702459 70.3268852,13.7766393 C70.4419678,13.7830328 70.563442,13.7990163 70.6913115,13.8245902 L70.6913115,14.0163934 L66.9703279,14.0163934 L66.9703279,13.8245902 C67.2644277,13.7990163 67.5169662,13.7414759 67.7279508,13.6519672 C67.9389355,13.5624586 68.0444262,13.4154109 68.0444262,13.2108197 L68.0444262,6.65114754 C68.0444262,6.54885195 68.0348362,6.4721314 68.0156557,6.42098361 C67.9964753,6.36983581 67.9421316,6.3122954 67.852623,6.24836066 C67.7375404,6.18442591 67.6032795,6.11090205 67.4498361,6.02778689 C67.2963927,5.94467172 67.1429516,5.87114786 66.9895082,5.80721311 L66.9895082,5.65377049 L69.5021311,4.75229508 L69.6172131,4.75229508 L69.6172131,6.82377049 L69.6555738,6.84295082 C69.7834433,6.61278573 69.9496711,6.37303403 70.1542623,6.12368852 C70.3588535,5.87434302 70.5954085,5.65057476 70.8639344,5.45237705 C71.1324604,5.25417934 71.4233591,5.08795149 71.7366393,4.95368852 C72.0499196,4.81942556 72.3791786,4.75229508 72.7244262,4.75229508 C73.3381998,4.75229508 73.8336866,4.95368651 74.2109016,5.35647541 C74.5881166,5.75926431 74.821475,6.29950481 74.9109836,6.97721311 L74.9685246,6.97721311 C75.0836071,6.74704803 75.2434416,6.50090295 75.4480328,6.23877049 C75.652624,5.97663803 75.889179,5.73368964 76.1577049,5.50991803 C76.4262309,5.28614642 76.723523,5.10393513 77.0495902,4.96327869 C77.3756574,4.82262225 77.7113097,4.75229508 78.0565574,4.75229508 C78.7982004,4.75229508 79.3576211,5.02081699 79.7348361,5.55786885 C80.1120511,6.09492072 80.3006557,6.78540562 80.3006557,7.62934426 L80.3006557,13.345082 C80.3006557,13.4345906 80.339016,13.5113112 80.4157377,13.5752459 C80.4924594,13.6391806 80.5851634,13.687131 80.6938525,13.7190984 C80.8025415,13.7510657 80.920819,13.7766392 81.0486885,13.7958197 C81.176558,13.8150001 81.2980322,13.8309835 81.4131148,13.8437705 L81.4131148,14.0163934 Z M89.5795082,11.1009836 C89.5283604,11.3822965 89.4132796,11.6987687 89.2342623,12.0504098 C89.055245,12.4020509 88.8122966,12.7249166 88.5054098,13.0190164 C88.1985231,13.3131162 87.8309038,13.5560646 87.402541,13.7478689 C86.9741782,13.9396731 86.4978715,14.0355738 85.9736066,14.0355738 C85.3214721,14.0355738 84.7268879,13.9140996 84.1898361,13.6711475 C83.6527842,13.4281955 83.1956576,13.0861497 82.8184426,12.645 C82.4412276,12.2038503 82.1503289,11.6859866 81.9457377,11.0913934 C81.7411465,10.4968003 81.6388525,9.8670525 81.6388525,9.20213115 C81.6388525,8.66507928 81.7347531,8.13123216 81.9265574,7.60057377 C82.1183616,7.06991538 82.3900802,6.59360867 82.7417213,6.17163934 C83.0933624,5.74967002 83.5217188,5.40762426 84.0268033,5.1454918 C84.5318878,4.88335935 85.0913084,4.75229508 85.705082,4.75229508 C86.203773,4.75229508 86.6736863,4.81622887 87.1148361,4.94409836 C87.5559858,5.07196785 87.9395885,5.2669659 88.2656557,5.52909836 C88.5917229,5.79123082 88.8570482,6.12048982 89.0616393,6.51688525 C89.2662305,6.91328067 89.3877047,7.37999731 89.4260656,7.91704918 L83.2691803,7.91704918 C83.2691803,8.01934477 83.2627869,8.13762228 83.25,8.27188525 C83.2372131,8.40614821 83.2308197,8.54360585 83.2308197,8.6842623 C83.2308197,9.22131416 83.3075402,9.73598115 83.4609836,10.2282787 C83.614427,10.7205762 83.8381953,11.155326 84.1322951,11.532541 C84.4263949,11.909756 84.7972109,12.2070481 85.2447541,12.4244262 C85.6922973,12.6418044 86.210161,12.7504918 86.7983607,12.7504918 C87.4377081,12.7504918 87.9971288,12.5874606 88.4766393,12.2613934 C88.9561499,11.9353262 89.2726222,11.5357401 89.4260656,11.062623 L89.5795082,11.1009836 Z M87.5272131,6.80459016 C87.5272131,6.33147304 87.364182,5.9254935 87.0381148,5.58663934 C86.7120476,5.24778519 86.2741011,5.07836066 85.7242623,5.07836066 C85.3662277,5.07836066 85.0433621,5.1838514 84.7556557,5.39483607 C84.4679494,5.60582073 84.2186076,5.85196581 84.007623,6.13327869 C83.7966383,6.41459157 83.6336071,6.69909692 83.5185246,6.98680328 C83.403442,7.27450964 83.3331149,7.4950812 83.307541,7.64852459 L84.0939344,7.64852459 C84.3240995,7.64852459 84.5510645,7.6453279 84.7748361,7.63893443 C84.9986077,7.63254095 85.231966,7.62614757 85.474918,7.6197541 C85.7178701,7.61336062 85.986392,7.61016393 86.2804918,7.61016393 C86.472296,7.61016393 86.6513106,7.60377056 86.817541,7.59098361 C86.9837713,7.57819666 87.130819,7.54622976 87.2586885,7.49508197 C87.3481972,7.39278637 87.4153276,7.29688569 87.460082,7.20737705 C87.5048363,7.1178684 87.5272131,6.98360745 87.5272131,6.80459016 Z" id="LogoName" fill="#3B566F"></path>
                    <path d="M13.6755738,10.0652459 L12.9659016,14.0163934 L0.652131148,14.0163934 L0.652131148,13.8245902 C0.971804877,13.7734424 1.28827712,13.6903284 1.60155738,13.5752459 C1.91483763,13.4601634 2.16098271,13.3003289 2.34,13.0957377 C2.40393475,13.019016 2.45827846,12.9071319 2.50303279,12.760082 C2.54778711,12.6130321 2.58295069,12.4436075 2.60852459,12.2518033 C2.63409849,12.059999 2.65647531,11.8586076 2.67565574,11.647623 C2.69483616,11.4366383 2.70442623,11.2288535 2.70442623,11.0242623 C2.70442623,10.845245 2.70762292,10.6022966 2.71401639,10.2954098 C2.72040987,9.98852306 2.72680325,9.65287067 2.73319672,9.28844262 C2.7395902,8.92401457 2.74278689,8.55000192 2.74278689,8.16639344 L2.74278689,2.66163934 C2.74278689,2.43147426 2.73319682,2.21729607 2.71401639,2.01909836 C2.69483597,1.82090065 2.66606577,1.64508273 2.62770492,1.49163934 C2.58934407,1.33819595 2.53180366,1.21672176 2.45508197,1.12721311 C2.27606468,0.909834979 2.03631298,0.743607133 1.73581967,0.62852459 C1.43532637,0.513442048 1.11885412,0.436721503 0.786393443,0.398360656 L0.786393443,0.206557377 L6.90491803,0.206557377 L6.90491803,0.398360656 C6.73868769,0.423934554 6.54049295,0.462294826 6.31032787,0.513442623 C6.08016278,0.56459042 5.86278791,0.647704343 5.65819672,0.762786885 C5.45360553,0.877869428 5.27778762,1.04090058 5.1307377,1.25188525 C4.98368779,1.46286991 4.90377056,1.74098188 4.89098361,2.08622951 C4.87819666,2.53377273 4.86860659,2.94294897 4.86221311,3.31377049 C4.85581964,3.68459202 4.84942626,4.0490146 4.84303279,4.40704918 C4.83663931,4.76508376 4.83344262,5.13589972 4.83344262,5.5195082 L4.83344262,9.01032787 C4.83344262,9.34278855 4.83663931,9.68483431 4.84303279,10.0364754 C4.84942626,10.3881165 4.85262295,10.7813093 4.85262295,11.2160656 C4.8654099,11.6252479 4.88139335,12.015244 4.90057377,12.3860656 C4.91975419,12.7568871 4.98688467,13.0318024 5.10196721,13.2108197 C5.15311501,13.2747544 5.25540907,13.3386882 5.40885246,13.402623 C5.56229585,13.4665577 5.74770383,13.5209014 5.96508197,13.5656557 C6.1824601,13.6104101 6.41901511,13.6487703 6.6747541,13.6807377 C6.93049308,13.7127051 7.18622823,13.7286885 7.44196721,13.7286885 C7.54426281,13.7286885 7.70729396,13.7254918 7.93106557,13.7190984 C8.15483718,13.7127049 8.40098226,13.6999181 8.6695082,13.6807377 C8.93803413,13.6615573 9.21294941,13.6327871 9.4942623,13.5944262 C9.77557518,13.5560654 10.0249169,13.5049184 10.2422951,13.4409836 C10.753773,13.3003272 11.1789327,13.1149192 11.5177869,12.8847541 C11.856641,12.654589 12.1475398,12.3892638 12.3904918,12.0887705 C12.6334438,11.7882772 12.838032,11.4622149 13.0042623,11.1105738 C13.1704926,10.7589327 13.3303271,10.3913134 13.4837705,10.0077049 L13.6755738,10.0652459 Z M22.647541,9.31721311 C22.647541,9.96934752 22.5260668,10.5863086 22.2831148,11.1681148 C22.0401627,11.7499209 21.7141004,12.2581945 21.304918,12.6929508 C20.8957357,13.1277071 20.4194289,13.4665562 19.8759836,13.7095082 C19.3325383,13.9524602 18.7603309,14.0739344 18.1593443,14.0739344 C17.6606532,14.0739344 17.1427896,13.9844271 16.6057377,13.8054098 C16.0686858,13.6263925 15.573199,13.3418872 15.1192623,12.9518852 C14.6653256,12.5618833 14.2945096,12.0631998 14.0068033,11.4558197 C13.7190969,10.8484396 13.5752459,10.1355779 13.5752459,9.31721311 C13.5752459,8.72901345 13.68713,8.16000275 13.9109016,7.61016393 C14.1346733,7.06032512 14.4479488,6.57442834 14.8507377,6.15245902 C15.2535266,5.73048969 15.7394234,5.39164062 16.3084426,5.13590164 C16.8774619,4.88016266 17.5072097,4.75229508 18.1977049,4.75229508 C18.7091829,4.75229508 19.2270466,4.84819576 19.7513115,5.04 C20.2755764,5.23180424 20.7518831,5.51630959 21.1802459,5.89352459 C21.6086087,6.27073959 21.9602445,6.74384961 22.2351639,7.31286885 C22.5100833,7.88188809 22.647541,8.54999616 22.647541,9.31721311 Z M20.8637705,9.29803279 C20.8637705,8.86327651 20.8158202,8.39655987 20.719918,7.89786885 C20.6240159,7.39917783 20.4673781,6.93885457 20.25,6.51688525 C20.0326219,6.09491592 19.7449198,5.74647678 19.3868852,5.47155738 C19.0288507,5.19663797 18.5877075,5.05918033 18.0634426,5.05918033 C17.6414733,5.05918033 17.264264,5.1870479 16.9318033,5.44278689 C16.5993426,5.69852587 16.3148372,6.03417825 16.0782787,6.4497541 C15.8417201,6.86532995 15.6627055,7.33204659 15.5412295,7.84991803 C15.4197535,8.36778947 15.3590164,8.89524322 15.3590164,9.43229508 C15.3590164,10.0204947 15.4101634,10.5767187 15.512459,11.1009836 C15.6147546,11.6252485 15.7809825,12.0887685 16.0111475,12.4915574 C16.2413126,12.8943463 16.535408,13.2140152 16.8934426,13.4505738 C17.2514772,13.6871323 17.6798336,13.8054098 18.1785246,13.8054098 C18.6772156,13.8054098 19.0959819,13.6551654 19.4348361,13.3546721 C19.7736902,13.0541788 20.0486055,12.6769695 20.2595902,12.2230328 C20.4705748,11.7690961 20.6240159,11.2800026 20.719918,10.7557377 C20.8158202,10.2314728 20.8637705,9.74557601 20.8637705,9.29803279 Z M32.9045902,5.80721311 C32.9045902,5.99901735 32.8374597,6.16844189 32.7031967,6.3154918 C32.5689338,6.46254172 32.4059026,6.53606557 32.2140984,6.53606557 C32.1373767,6.53606557 32.0222958,6.50409868 31.8688525,6.44016393 C31.7154091,6.37622919 31.5459845,6.29950864 31.3605738,6.21 C31.175163,6.12049136 30.9865583,6.02139399 30.7947541,5.91270492 C30.6029499,5.80401585 30.4303286,5.70491848 30.2768852,5.61540984 L30.2001639,5.69213115 C30.3919682,5.98623098 30.5549993,6.26114626 30.6892623,6.51688525 C30.8235253,6.77262423 30.8906557,7.10507992 30.8906557,7.5142623 C30.8906557,8.52443128 30.5390199,9.28204665 29.8357377,9.78713115 C29.1324555,10.2922156 28.1606619,10.5447541 26.9203279,10.5447541 C26.7413106,10.5447541 26.5590993,10.5319673 26.3736885,10.5063934 C26.1882778,10.4808195 25.9677062,10.4680328 25.7119672,10.4680328 C25.3027848,10.4936067 24.9767225,10.5895074 24.7337705,10.7557377 C24.4908185,10.921968 24.3693443,11.1329495 24.3693443,11.3886885 C24.3693443,11.5932797 24.433278,11.7627042 24.5611475,11.8969672 C24.689017,12.0312302 24.8488515,12.1367209 25.0406557,12.2134426 C25.23246,12.2901643 25.4434415,12.3413113 25.6736066,12.3668852 C25.9037716,12.3924591 26.1275399,12.4052459 26.344918,12.4052459 L29.4137705,12.4052459 C29.8613137,12.4052459 30.2640966,12.4755731 30.6221311,12.6162295 C30.9801657,12.7568859 31.2870479,12.9486873 31.5427869,13.1916393 C31.7985259,13.4345914 31.9935239,13.7127034 32.1277869,14.0259836 C32.2620499,14.3392639 32.3291803,14.687703 32.3291803,15.0713115 C32.3291803,15.5700025 32.2045094,16.0463092 31.9551639,16.5002459 C31.7058184,16.9541826 31.3573793,17.3537688 30.9098361,17.6990164 C30.4622928,18.044264 29.9348391,18.3159826 29.327459,18.5141803 C28.7200789,18.712378 28.0519709,18.8114754 27.3231148,18.8114754 C25.9293373,18.8114754 24.8456596,18.6036906 24.0720492,18.1881148 C23.2984388,17.7725389 22.9116393,17.2003315 22.9116393,16.4714754 C22.9116393,16.2029495 22.9851632,15.9600011 23.1322131,15.742623 C23.279263,15.5252448 23.464671,15.31746 23.6884426,15.1192623 C23.9122142,14.9210646 24.161556,14.7356566 24.4364754,14.5630328 C24.7113948,14.390409 24.9831134,14.2209844 25.2516393,14.0547541 L25.2516393,14.0163934 C24.5995049,13.9396717 24.0976247,13.7542638 23.7459836,13.4601639 C23.3943425,13.1660641 23.2185246,12.776068 23.2185246,12.2901639 C23.2185246,12.0472119 23.276065,11.8170503 23.3911475,11.5996721 C23.5062301,11.382294 23.6660646,11.1840993 23.8706557,11.005082 C24.0752469,10.8260647 24.3149986,10.6758203 24.589918,10.5543443 C24.8648374,10.4328682 25.1621295,10.352951 25.4818033,10.3145902 L25.4818033,10.2570492 C24.9191775,10.039671 24.4812311,9.72000211 24.1679508,9.29803279 C23.8546706,8.87606346 23.6980328,8.33901965 23.6980328,7.68688525 C23.6980328,7.27770287 23.7907368,6.89410015 23.9761475,6.53606557 C24.1615583,6.178031 24.4204901,5.86795213 24.7529508,5.60581967 C25.0854115,5.34368721 25.4786043,5.13590241 25.932541,4.98245902 C26.3864777,4.82901563 26.8819645,4.75229508 27.4190164,4.75229508 C27.9049205,4.75229508 28.3364735,4.79704873 28.7136885,4.88655738 C29.0909035,4.97606602 29.4840963,5.12950711 29.8932787,5.34688525 C30.0467221,5.39803304 30.1777863,5.42999994 30.2864754,5.44278689 C30.3951645,5.45557383 30.5262287,5.46196721 30.6796721,5.46196721 C30.8331155,5.46196721 30.9705732,5.43959039 31.0920492,5.39483607 C31.2135252,5.35008174 31.3254093,5.29893471 31.4277049,5.24139344 C31.5300005,5.18385217 31.6386879,5.13270514 31.7537705,5.08795082 C31.868853,5.0431965 32.003114,5.02081967 32.1565574,5.02081967 C32.3739355,5.02081967 32.5529501,5.09754022 32.6936066,5.25098361 C32.834263,5.404427 32.9045902,5.58983498 32.9045902,5.80721311 Z M29.3562295,7.5142623 C29.3562295,7.18180162 29.3114759,6.86852606 29.2219672,6.57442623 C29.1324586,6.2803264 29.0013943,6.02139456 28.8287705,5.79762295 C28.6561467,5.57385134 28.4387718,5.39483674 28.1766393,5.26057377 C27.9145069,5.1263108 27.6108214,5.05918033 27.2655738,5.05918033 C26.9459,5.05918033 26.658198,5.13270418 26.402459,5.2797541 C26.14672,5.42680401 25.9325418,5.62499875 25.759918,5.87434426 C25.5872942,6.12368977 25.45623,6.40819512 25.3667213,6.72786885 C25.2772127,7.04754258 25.232459,7.3736049 25.232459,7.70606557 C25.232459,8.47328252 25.4274571,9.09024357 25.817459,9.55696721 C26.207461,10.0236909 26.6837677,10.2570492 27.2463934,10.2570492 C27.5916411,10.2570492 27.8953266,10.1803286 28.157459,10.0268852 C28.4195915,9.87344186 28.640163,9.66885374 28.8191803,9.41311475 C28.9981976,9.15737577 29.1324586,8.86647704 29.2219672,8.54040984 C29.3114759,8.21434263 29.3562295,7.87229687 29.3562295,7.5142623 Z M31.0440984,15.8577049 C31.0440984,15.4868834 30.9673778,15.1672145 30.8139344,14.8986885 C30.660491,14.6301626 30.4750831,14.4447546 30.2577049,14.342459 C29.976392,14.2018026 29.6247562,14.1027052 29.2027869,14.0451639 C28.7808176,13.9876227 28.1990201,13.9588525 27.457377,13.9588525 C27.1888511,13.9588525 26.9139358,13.9716392 26.632623,13.9972131 C26.3513101,14.022787 26.1211484,14.0483605 25.9421311,14.0739344 C25.3411445,14.2273778 24.9255749,14.4703262 24.6954098,14.8027869 C24.4652448,15.1352476 24.3501639,15.4996701 24.3501639,15.8960656 C24.3501639,16.3052479 24.4620481,16.6632772 24.6858197,16.9701639 C24.9095913,17.2770507 25.1877033,17.5359826 25.5201639,17.7469672 C25.8526246,17.9579519 26.2074571,18.1145897 26.5846721,18.2168852 C26.9618871,18.3191808 27.3103263,18.3703279 27.63,18.3703279 C28.0136085,18.3703279 28.3428675,18.3511477 28.6177869,18.3127869 C28.8927063,18.274426 29.1388514,18.2168856 29.3562295,18.1401639 C29.8037727,17.9611466 30.1969655,17.6734446 30.5358197,17.2770492 C30.8746738,16.8806538 31.0440984,16.4075437 31.0440984,15.8577049 Z M41.7806557,9.31721311 C41.7806557,9.96934752 41.6591815,10.5863086 41.4162295,11.1681148 C41.1732775,11.7499209 40.8472152,12.2581945 40.4380328,12.6929508 C40.0288504,13.1277071 39.5525437,13.4665562 39.0090984,13.7095082 C38.465653,13.9524602 37.8934456,14.0739344 37.292459,14.0739344 C36.793768,14.0739344 36.2759043,13.9844271 35.7388525,13.8054098 C35.2018006,13.6263925 34.7063137,13.3418872 34.252377,12.9518852 C33.7984404,12.5618833 33.4276244,12.0631998 33.139918,11.4558197 C32.8522117,10.8484396 32.7083607,10.1355779 32.7083607,9.31721311 C32.7083607,8.72901345 32.8202448,8.16000275 33.0440164,7.61016393 C33.267788,7.06032512 33.5810636,6.57442834 33.9838525,6.15245902 C34.3866414,5.73048969 34.8725381,5.39164062 35.4415574,5.13590164 C36.0105766,4.88016266 36.6403244,4.75229508 37.3308197,4.75229508 C37.8422976,4.75229508 38.3601613,4.84819576 38.8844262,5.04 C39.4086911,5.23180424 39.8849979,5.51630959 40.3133607,5.89352459 C40.7417235,6.27073959 41.0933593,6.74384961 41.3682787,7.31286885 C41.6431981,7.88188809 41.7806557,8.54999616 41.7806557,9.31721311 Z M39.9968852,9.29803279 C39.9968852,8.86327651 39.9489349,8.39655987 39.8530328,7.89786885 C39.7571307,7.39917783 39.6004929,6.93885457 39.3831148,6.51688525 C39.1657366,6.09491592 38.8780346,5.74647678 38.52,5.47155738 C38.1619654,5.19663797 37.7208223,5.05918033 37.1965574,5.05918033 C36.7745881,5.05918033 36.3973787,5.1870479 36.064918,5.44278689 C35.7324574,5.69852587 35.447952,6.03417825 35.2113934,6.4497541 C34.9748349,6.86532995 34.7958203,7.33204659 34.6743443,7.84991803 C34.5528682,8.36778947 34.4921311,8.89524322 34.4921311,9.43229508 C34.4921311,10.0204947 34.5432782,10.5767187 34.6455738,11.1009836 C34.7478694,11.6252485 34.9140972,12.0887685 35.1442623,12.4915574 C35.3744274,12.8943463 35.6685228,13.2140152 36.0265574,13.4505738 C36.384592,13.6871323 36.8129483,13.8054098 37.3116393,13.8054098 C37.8103304,13.8054098 38.2290967,13.6551654 38.5679508,13.3546721 C38.906805,13.0541788 39.1817203,12.6769695 39.3927049,12.2230328 C39.6036896,11.7690961 39.7571307,11.2800026 39.8530328,10.7557377 C39.9489349,10.2314728 39.9968852,9.74557601 39.9968852,9.29803279 Z" id="LogoName-Copy" fill="#6F7F80"></path>
                </g>
            </g>
        </g>
    </g>
</svg>